# xmcd CD database file
#
# Track frame offsets:
#	150
#	13086
#	29324
#	42323
#	58550
#	74535
#	91081
#	106757
#	122002
#	136466
#	154076
#
# Disc length: 2247 seconds
#
# Revision: 0
# Processed by: cddbd v1.4PL0 Copyright (c) Steve Scherf et al.
# Submitted via: CDex 1.40Release
#
DISCID=8c08c50b
DTITLE=Eli and Young Band - Eli and Young Band
DYEAR=2002
DGENRE=Country
TTITLE0=I'm In Love
TTITLE1=When We Were Innocent
TTITLE2=Show You How To Love Again
TTITLE3=I Still Think It's Me
TTITLE4=Know I Would
TTITLE5=Guardian Angel
TTITLE6=When You Come Down My Way
TTITLE7=Uncertain
TTITLE8=Drive Away
TTITLE9=We Could Be Forever
TTITLE10=Here's To You
EXTD=YEAR: 2002 ID3G: 2
EXTT0=
EXTT1=
EXTT2=
EXTT3=
EXTT4=
EXTT5=
EXTT6=
EXTT7=
EXTT8=
EXTT9=
EXTT10=
PLAYORDER=
